<svg xmlns="http://www.w3.org/2000/svg" viewBox="0 0 40 40"><defs><radialGradient id="b" cx="36%" cy="28%" r="78%"><stop offset="0%" stop-color="#ffffff"/><stop offset="38%" stop-color="#f2f3f4"/><stop offset="78%" stop-color="#d9dce0"/><stop offset="100%" stop-color="#c3c7cc"/></radialGradient><linearGradient id="u" x1="0" y1="0" x2="0" y2="1"><stop offset="50%" stop-color="#0f1012" stop-opacity="0"/><stop offset="100%" stop-color="#0f1012" stop-opacity="0.16"/></linearGradient><radialGradient id="s" cx="50%" cy="50%" r="50%"><stop offset="0%" stop-color="#ffffff" stop-opacity="0.95"/><stop offset="100%" stop-color="#ffffff" stop-opacity="0"/></radialGradient></defs><rect width="40" height="40" rx="10" fill="#0f1012"/><g transform="translate(-0.2 -1.2)"><path d="M4.3 23.2C3.6 17.9 8.9 12.2 16.4 10.4c6.4-1.5 13.9-.6 17.7 3.5 3.3 3.6 2.4 9.1-2.2 12.9-4.3 3.5-10.6 5-16.6 4.4C9.3 30.6 4.9 27.9 4.3 23.2Z" fill="url(#b)"/><path d="M4.3 23.2C3.6 17.9 8.9 12.2 16.4 10.4c6.4-1.5 13.9-.6 17.7 3.5 3.3 3.6 2.4 9.1-2.2 12.9-4.3 3.5-10.6 5-16.6 4.4C9.3 30.6 4.9 27.9 4.3 23.2Z" fill="url(#u)"/><path d="M12.4 12.6c1.6 3.6 4 7 7.6 9.4 2.6 1.8 4.4 4 5.1 7.2" stroke="#7d838b" stroke-opacity="0.35" stroke-width="0.7" stroke-linecap="round" fill="none"/><circle cx="8.6" cy="21.4" r="0.42" fill="#6f757d" fill-opacity="0.3"/><circle cx="13.9" cy="26.8" r="0.49" fill="#6f757d" fill-opacity="0.28"/><circle cx="26.4" cy="24.6" r="0.56" fill="#6f757d" fill-opacity="0.3"/><circle cx="29.8" cy="16.2" r="0.42" fill="#6f757d" fill-opacity="0.26"/><circle cx="18.2" cy="17.9" r="0.35" fill="#6f757d" fill-opacity="0.22"/><circle cx="22.9" cy="13.6" r="0.39" fill="#6f757d" fill-opacity="0.24"/><circle cx="31.2" cy="21.3" r="0.42" fill="#6f757d" fill-opacity="0.28"/><circle cx="10.9" cy="17.3" r="0.35" fill="#6f757d" fill-opacity="0.2"/><ellipse cx="15.4" cy="14.6" rx="6.2" ry="2.2" transform="rotate(-10 15.4 14.6)" fill="url(#s)"/></g></svg>
